<svg xmlns="http://www.w3.org/2000/svg" width="80" height="77.333" viewBox="0 0 80 77.333"><defs><style>.a{fill:#fbf8f6;}</style></defs><g transform="translate(0 -7.982)"><g transform="translate(0 34.492)"><g transform="translate(0)"><path class="a" d="M68.559,160.017H1.155A1.12,1.12,0,0,0,0,161.1v30.327a1.119,1.119,0,0,0,1.153,1.083H46.988a1.085,1.085,0,1,0,0-2.166H2.311V162.183H67.4v2.708a1.119,1.119,0,0,0,1.153,1.083h0a1.12,1.12,0,0,0,1.155-1.08V161.1A1.119,1.119,0,0,0,68.559,160.017Z" transform="translate(0 -160.017)"/></g></g><g transform="translate(2.526 15.569)"><path class="a" d="M70.383,67.417,19.843,56.045a1.083,1.083,0,0,0-1.3.821L16.021,68.238a1.083,1.083,0,0,0,2.115.47L20.427,58.4,69.908,69.529a1.021,1.021,0,0,0,.239.027,1.083,1.083,0,0,0,.236-2.139Z" transform="translate(-15.995 -56.019)"/></g><g transform="translate(18.172 7.982)"><path class="a" d="M138.247,20.7,107.923,8.066a1.087,1.087,0,0,0-1.39.517l-2.527,5.054a1.087,1.087,0,1,0,1.912,1.034c.011-.021.022-.042.032-.063v0l2.073-4.149L137.41,22.7a1.086,1.086,0,1,0,.836-2Z" transform="translate(-103.875 -7.982)"/></g><g transform="translate(43.218 38.779)"><path class="a" d="M267.111,192.017H257.083a1.083,1.083,0,1,0,0,2.166h10.028a1.083,1.083,0,0,0,0-2.166Z" transform="translate(-256 -192.017)"/></g><g transform="translate(21.949 39.54)"><path class="a" d="M139.575,192.473a11.119,11.119,0,1,0,11.119,11.119A11.119,11.119,0,0,0,139.575,192.473Zm0,20.216a9.1,9.1,0,1,1,9.1-9.1A9.1,9.1,0,0,1,139.575,212.689Z" transform="translate(-128.456 -192.473)"/></g><g transform="translate(52.203 44.883)"><path class="a" d="M316.755,214.873c-6.7,0-13.9,1.582-13.9,5.054v30.324c0,3.472,7.2,5.054,13.9,5.054s13.9-1.582,13.9-5.054V219.927C330.653,216.455,323.451,214.873,316.755,214.873Zm11.372,35.359c-.191.7-3.98,2.546-11.372,2.546s-11.181-1.845-11.372-2.527v-1.986c2.689,1.354,7.13,1.986,11.372,1.986s8.684-.638,11.372-1.987Zm0-5.054c-.191.7-3.98,2.546-11.372,2.546s-11.181-1.845-11.372-2.527v-1.986c2.689,1.354,7.13,1.986,11.372,1.986s8.684-.638,11.372-1.988Zm0-5.054c-.191.7-3.98,2.546-11.372,2.546s-11.181-1.845-11.372-2.527v-1.986c2.689,1.354,7.13,1.986,11.372,1.986s8.684-.638,11.372-1.987Zm0-5.054c-.191.7-3.98,2.546-11.372,2.546s-11.181-1.845-11.372-2.527V233.1c2.689,1.354,7.13,1.986,11.372,1.986s8.684-.638,11.372-1.987Zm0-5.054c-.191.7-3.98,2.546-11.372,2.546s-11.181-1.845-11.372-2.527v-1.986c2.689,1.348,7.13,1.986,11.372,1.986s8.684-.638,11.372-1.987Zm0-5.054c-.191.7-3.98,2.546-11.372,2.546s-11.181-1.845-11.372-2.527v-1.986c2.689,1.348,7.13,1.986,11.372,1.986s8.684-.638,11.372-1.988Zm-11.372-2.508c-7.38,0-11.168-1.84-11.372-2.5v-.008c.2-.7,3.991-2.542,11.372-2.542,7.328,0,11.119,1.812,11.372,2.527C327.873,220.642,324.083,222.454,316.755,222.454Z" transform="translate(-302.856 -214.873)"/></g><g transform="translate(5.053 39.469)"><path class="a" d="M48.238,212.232H38.687l-4.528-4.953v-8.213l5-4.883h9.078a1.083,1.083,0,0,0,0-2.166H38.72a1.084,1.084,0,0,0-.758.307l-5.644,5.505a1.357,1.357,0,0,0-.326.884V207.7a1.084,1.084,0,0,0,.283.73l5.134,5.615a1.083,1.083,0,0,0,.8.353h10.03a1.083,1.083,0,1,0,0-2.166Z" transform="translate(-31.992 -192.017)"/></g><g transform="translate(29.39 44.919)"><path class="a" d="M179.278,231.3h-1.263c-.393,0-.632-.22-.632-.316s.239-.316.632-.316h3.159a1.263,1.263,0,1,0,0-2.527H179.91a1.264,1.264,0,1,0-2.527,0v.057a2.941,2.941,0,0,0-2.527,2.78,3.017,3.017,0,0,0,3.159,2.849h1.263c.393,0,.632.22.632.316s-.239.316-.632.316H176.12a1.264,1.264,0,1,0,0,2.527h1.264a1.264,1.264,0,1,0,2.527,0v-.057a2.941,2.941,0,0,0,2.527-2.78A3.017,3.017,0,0,0,179.278,231.3Z" transform="translate(-174.856 -226.873)"/></g></g></svg>