<svg xmlns="http://www.w3.org/2000/svg" width="80" height="80" viewBox="0 0 80 80"><defs><style>.a{fill:#fbf8f6;}</style></defs><g transform="translate(27.5 27.465)"><g transform="translate(0 0)"><rect class="a" width="3" height="2"/></g></g><g transform="translate(27.5 31.859)"><g transform="translate(0 0)"><rect class="a" width="3" height="2"/></g></g><g transform="translate(27.5 37.352)"><g transform="translate(0 0)"><rect class="a" width="3" height="2"/></g></g><g transform="translate(27.5 42.9)"><g transform="translate(0 0)"><rect class="a" width="3" height="3"/></g></g><g transform="translate(34.056 27.465)"><g transform="translate(0 0)"><rect class="a" width="2" height="2"/></g></g><g transform="translate(34.056 31.859)"><g transform="translate(0 0)"><rect class="a" width="2" height="2"/></g></g><g transform="translate(34.056 37.352)"><g transform="translate(0 0)"><rect class="a" width="2" height="2"/></g></g><g transform="translate(34.056 42.9)"><g transform="translate(0 0)"><rect class="a" width="2" height="3"/></g></g><g transform="translate(38.5 27.465)"><g transform="translate(0 0)"><rect class="a" width="3" height="2"/></g></g><g transform="translate(38.5 31.859)"><g transform="translate(0 0)"><rect class="a" width="3" height="2"/></g></g><g transform="translate(38.5 37.352)"><g transform="translate(0 0)"><rect class="a" width="3" height="2"/></g></g><g transform="translate(38.5 42.9)"><g transform="translate(0 0)"><rect class="a" width="3" height="3"/></g></g><g transform="translate(43.944 27.465)"><g transform="translate(0 0)"><rect class="a" width="2" height="2"/></g></g><g transform="translate(34.056 21.972)"><g transform="translate(0 0)"><rect class="a" width="2" height="2"/></g></g><g transform="translate(38.5 21.972)"><g transform="translate(0 0)"><rect class="a" width="3" height="2"/></g></g><g transform="translate(43.944 21.972)"><g transform="translate(0 0)"><rect class="a" width="2" height="2"/></g></g><g transform="translate(43.944 31.859)"><g transform="translate(0 0)"><rect class="a" width="2" height="2"/></g></g><g transform="translate(43.944 37.352)"><g transform="translate(0 0)"><rect class="a" width="2" height="2"/></g></g><g transform="translate(43.944 42.9)"><g transform="translate(0 0)"><rect class="a" width="2" height="3"/></g></g><g transform="translate(49.5 27.465)"><g transform="translate(0 0)"><rect class="a" width="3" height="2"/></g></g><g transform="translate(49.5 31.859)"><g transform="translate(0 0)"><rect class="a" width="3" height="2"/></g></g><g transform="translate(49.5 37.352)"><g transform="translate(0 0)"><rect class="a" width="3" height="2"/></g></g><g transform="translate(49.5 42.9)"><g transform="translate(0 0)"><rect class="a" width="3" height="3"/></g></g><g transform="translate(0 0)"><g transform="translate(0 0)"><path class="a" d="M78.668,20h-20V1.333A1.333,1.333,0,0,0,57.335,0H22.667a1.333,1.333,0,0,0-1.333,1.332h0V20h-20A1.333,1.333,0,0,0,0,21.332v48a1.333,1.333,0,0,0,1.332,1.333H4.12A8,8,0,0,0,4,72v6.667A1.333,1.333,0,0,0,5.332,80H74.667A1.333,1.333,0,0,0,76,78.668V72a7.967,7.967,0,0,0-.12-1.333h2.787A1.333,1.333,0,0,0,80,69.335v-48A1.333,1.333,0,0,0,78.668,20ZM57.333,57.333a2.667,2.667,0,1,1-2.667-2.667A2.667,2.667,0,0,1,57.333,57.333Zm-32-2.667a2.667,2.667,0,1,1-2.667,2.667A2.667,2.667,0,0,1,25.333,54.667Zm-8,22.667H6.667V72a5.333,5.333,0,0,1,10.667,0Zm-8-16A2.667,2.667,0,1,1,12,64,2.667,2.667,0,0,1,9.333,61.333Zm8.2,4.9A8.037,8.037,0,0,0,15.858,65a5.333,5.333,0,1,0-7.716,0,8.052,8.052,0,0,0-3.06,3H2.667V22.667H21.333V53.843A5.261,5.261,0,0,0,21.475,61,8.023,8.023,0,0,0,17.535,66.237Zm13.131,11.1H20V68a5.333,5.333,0,0,1,10.667,0Zm16,0H33.333V68a6.667,6.667,0,1,1,13.333,0ZM36,54.667a4,4,0,1,1,4,4A4,4,0,0,1,36,54.667Zm12.12,8.749a9.392,9.392,0,0,0-3.825-3.693,6.667,6.667,0,1,0-8.59,0,9.392,9.392,0,0,0-3.826,3.693A8.053,8.053,0,0,0,29.191,61,5.3,5.3,0,0,0,24,52.189V2.667H56V52.189A5.31,5.31,0,0,0,50.809,61,8.053,8.053,0,0,0,48.12,63.416ZM60,72v5.333H49.333V68A5.333,5.333,0,0,1,60,68Zm13.333,5.333H62.667V72a5.333,5.333,0,0,1,10.667,0Zm-8-16A2.667,2.667,0,1,1,68,64,2.667,2.667,0,0,1,65.333,61.333Zm12,6.667H74.918a8.052,8.052,0,0,0-3.06-3,5.333,5.333,0,1,0-7.716,0,8.033,8.033,0,0,0-1.677,1.242A8.022,8.022,0,0,0,58.525,61a5.261,5.261,0,0,0,.142-7.153V22.667H77.333V68Z" transform="translate(0 0)"/></g></g><g transform="translate(62.62 31.698)"><g transform="translate(0 0)"><rect class="a" width="2" height="20"/></g></g><g transform="translate(72 31.698)"><g transform="translate(0 0)"><rect class="a" width="2" height="20"/></g></g><g transform="translate(6 31.698)"><g transform="translate(0 0)"><rect class="a" width="2" height="20"/></g></g><g transform="translate(15.38 31.698)"><g transform="translate(0 0)"><rect class="a" width="2" height="20"/></g></g><g transform="translate(31.483 4.867)"><path class="a" d="M199.818,32h-14.6A1.216,1.216,0,0,0,184,33.215h0V42.95a1.216,1.216,0,0,0,1.215,1.217h14.6a1.216,1.216,0,0,0,1.217-1.215h0V33.217A1.216,1.216,0,0,0,199.818,32ZM198.6,41.733H186.433v-7.3H198.6Z" transform="translate(-184 -32)"/></g></svg>