<svg xmlns="http://www.w3.org/2000/svg" width="80" height="82.887" viewBox="0 0 80 82.887"><defs><style>.a{fill:#fbf8f6;}</style></defs><g transform="translate(-8.919)"><g transform="translate(8.919 35.257)"><g transform="translate(0)"><path class="a" d="M88.646,192.846l-7.511-13.019a3.882,3.882,0,0,0-3.374-1.9H20.077a3.882,3.882,0,0,0-3.374,1.9L9.193,192.846a2.017,2.017,0,0,0,.1,2.18,2.332,2.332,0,0,0,1.925.971h6.115v26.189a3.465,3.465,0,0,0,3.544,3.371H76.964a3.465,3.465,0,0,0,3.544-3.371V210.944a1.224,1.224,0,0,0-2.429,0v11.243a1.194,1.194,0,0,1-1.116,1.232H50.134V183.462l6.333,10.978A3.193,3.193,0,0,0,59.244,196H78.079v9.956a1.224,1.224,0,0,0,2.429,0V196h6.115a2.333,2.333,0,0,0,1.925-.971A2.018,2.018,0,0,0,88.646,192.846Zm-77.3,1.013a.088.088,0,0,1,.012-.044L18.869,180.8a1.417,1.417,0,0,1,1.209-.73H46.94l-7.733,13.405h0a.73.73,0,0,1-.612.388Zm36.359,29.56H20.875a1.194,1.194,0,0,1-1.116-1.232V196H38.595a3.193,3.193,0,0,0,2.777-1.558l6.333-10.978Zm11.539-29.56a.729.729,0,0,1-.612-.388L50.9,180.066H77.761a1.417,1.417,0,0,1,1.209.73l7.511,13.019a.086.086,0,0,1,.012.044Z" transform="translate(-8.919 -177.927)"/></g></g><g transform="translate(35.905 0)"><g transform="translate(0 0)"><path class="a" d="M177.738,3.325a7.042,7.042,0,0,0-13.014,3.736c.005,5.43,3.641,10.687,9.975,14.423a1.069,1.069,0,0,0,1.086-1.842c-2.681-1.581-8.916-5.972-8.923-12.583A4.9,4.9,0,0,1,172.417,2.2a5.164,5.164,0,0,1,3.769,2.65,2,2,0,0,0,3.122-.03,5.1,5.1,0,0,1,4.4-2.679,4.911,4.911,0,0,1,4.9,4.9c.006,6.294-5.593,10.6-8.931,12.6a1.069,1.069,0,0,0,1.1,1.834c6.434-3.864,9.974-8.991,9.968-14.437A7.042,7.042,0,0,0,177.738,3.325Z" transform="translate(-164.724 0)"/></g></g></g></svg>